<svg width="70" height="48" viewBox="0 0 70 48" fill="none" xmlns="http://www.w3.org/2000/svg">
<rect x="0.5" y="0.5" width="69" height="47" rx="5.5" fill="white" stroke="#D9D9D9"/>
<g clip-path="url(#clip0_551_1735)">
<path d="M18.7069 39V25.2893H20.935V26.2974C21.2429 25.8053 21.8403 25.4572 22.31 25.2984C22.7814 25.1445 23.2701 25.0647 23.768 25.0647C24.9986 25.0647 26.3147 25.477 27.3835 26.578C28.3702 27.5958 28.8921 28.8334 28.8921 30.299C28.8921 30.9721 28.7627 31.6345 28.5038 32.2697C28.254 32.9083 27.8947 33.4695 27.435 33.9377C26.9495 34.4429 26.396 34.8239 25.7878 35.0815C25.1812 35.3366 24.6136 35.4674 23.8684 35.4674C23.3265 35.4674 22.8046 35.3851 22.31 35.2148C21.8246 35.0593 21.1433 34.6717 20.8977 34.2487V39H18.7061M23.695 27.0116C22.8826 27.0116 22.1748 27.2626 21.5939 27.8526C20.9997 28.4681 20.769 29.3453 20.769 30.22C20.769 31.1515 20.9939 32.0599 21.5723 32.6746C22.1557 33.2901 22.876 33.5065 23.7124 33.5065C24.5489 33.5065 25.2501 33.165 25.7753 32.6384C26.3761 32.0319 26.6616 31.2074 26.6616 30.322C26.6616 29.3518 26.3736 28.4903 25.7911 27.8773C25.2907 27.3498 24.5663 27.0116 23.6966 27.0116" fill="#21418D"/>
<path d="M44.1649 39L46.0453 34.6766L41.7319 25.2902H44.0803L47.1448 32.3372L49.9711 25.2902H52.3328L46.4701 39H44.1649Z" fill="#21418D"/>
<path d="M38.1977 35.2864V34.2487C37.9529 34.6717 37.2716 35.0593 36.787 35.2148C36.2924 35.386 35.7647 35.4674 35.2278 35.4674C34.4834 35.4674 33.9158 35.3374 33.3067 35.0815C32.7001 34.8231 32.1475 34.4421 31.6629 33.9369C31.2015 33.4703 30.8422 32.9083 30.5941 32.2714C30.3343 31.632 30.2024 30.9729 30.2024 30.2998C30.2024 28.8343 30.7243 27.5967 31.7127 26.5788C32.784 25.477 34.0984 25.0655 35.3323 25.0655C35.8269 25.0655 36.3157 25.1453 36.7878 25.3009C37.2592 25.4572 37.8583 25.8061 38.1662 26.2974V25.2893H40.3909V35.2864H38.1985M33.3051 27.8773C32.7226 28.4903 32.4371 29.3519 32.4371 30.322C32.4371 31.2066 32.7226 32.0319 33.3233 32.6384C33.8478 33.1642 34.5357 33.5065 35.3846 33.5065C36.2335 33.5065 36.9413 33.2901 37.5214 32.6746C38.1048 32.0599 38.3247 31.1515 38.3247 30.22C38.3247 29.3453 38.0965 28.4689 37.504 27.8526C36.9189 27.2585 36.2136 27.0116 35.402 27.0116C34.5299 27.0116 33.8071 27.349 33.3051 27.8773Z" fill="#21418D"/>
<path d="M54.6655 18.9467L54.5509 12.2715H56.6761V20.6936H53.6216L51.5055 13.7799H51.4507L51.5719 20.6936H49.4658V12.2715H52.6457L54.6198 18.9467H54.6655Z" fill="#21418D"/>
<path d="M16.0772 13.0557L14.9064 20.771H12.5903L14.1778 12.2715H17.9966L19.5824 20.771H17.2738L16.1287 13.0557H16.0772Z" fill="#21418D"/>
<path d="M26.0774 18.7739L27.1379 12.2715H30.6323L30.8239 20.771H28.6772L28.6175 13.1282H28.576L27.1412 20.771H24.9704L23.5315 13.1282H23.4834L23.4303 20.771H21.286L21.481 12.2715H24.9787L26.0342 18.7739H26.0774Z" fill="#21418D"/>
<path d="M44.0579 19.4963C44.6603 19.4963 44.8404 19.0915 44.8844 18.8866C44.9018 18.7953 44.9018 18.671 44.9018 18.5607V12.2715H47.0792V18.3657C47.0792 18.5245 47.0618 18.843 47.0552 18.9277C46.9083 20.5159 45.6362 21.0261 44.0587 21.0261C42.4812 21.0261 41.2174 20.5159 41.073 18.9277C41.0622 18.843 41.0464 18.5245 41.0514 18.3657V12.2715H43.2214V18.5607C43.2139 18.6702 43.2247 18.7953 43.238 18.8866C43.2787 19.0915 43.4654 19.4963 44.0587 19.4963" fill="#21418D"/>
<path d="M8.98064 18.3723C9.06113 18.5788 9.0379 18.843 8.99723 19.0018C8.92836 19.2857 8.73501 19.577 8.15746 19.577C7.62306 19.577 7.30192 19.2692 7.30192 18.8043L7.29528 17.9798H5V18.6356C5 20.5348 6.50114 21.1042 8.10933 21.1042C9.71752 21.1042 10.9432 20.5809 11.144 19.1647C11.2502 18.4274 11.1738 17.9469 11.139 17.7675C10.778 15.9827 7.52099 15.4593 7.27785 14.4628C7.23636 14.2868 7.243 14.1123 7.26789 14.0169C7.33013 13.7387 7.51684 13.4425 8.05041 13.4425C8.58398 13.4425 8.85119 13.7552 8.85119 14.2094V14.7418H10.9913V14.1452C10.9913 12.2888 9.31091 12 8.09522 12C6.57334 12 5.32529 12.5028 5.09792 13.891C5.039 14.2662 5.0307 14.6052 5.11534 15.0323C5.49042 16.7743 8.53752 17.2729 8.98064 18.3723Z" fill="#21418D"/>
<path d="M36.8609 18.3616C36.9464 18.5632 36.9107 18.8232 36.8783 18.9821C36.8128 19.261 36.6153 19.5441 36.0526 19.5441C35.5199 19.5441 35.1988 19.2421 35.1988 18.7804V17.9625H32.9193V18.6167C32.9193 20.4978 34.4096 21.0565 36.0078 21.0565C37.6061 21.0565 38.8018 20.5397 39.0043 19.1351C39.1072 18.4093 39.0325 17.9329 38.9935 17.7486C38.6359 15.9893 35.4153 15.4684 35.1772 14.4768C35.1374 14.3123 35.149 14.1337 35.1672 14.0415C35.2245 13.7725 35.4112 13.4771 35.9423 13.4771C36.4443 13.4771 36.7348 13.779 36.7348 14.2308V14.755H38.85V14.165C38.85 12.3333 37.1887 12.0461 35.9921 12.0461C34.481 12.0461 33.2429 12.534 33.0238 13.9148C32.9549 14.2843 32.9466 14.6192 33.0404 15.0479C33.4088 16.7735 36.4244 17.2672 36.8609 18.3608" fill="#21418D"/>
<path d="M61.9462 19.4108C62.5636 19.4108 62.7819 19.0273 62.8217 18.7953C62.835 18.6998 62.8416 18.578 62.8408 18.471V17.2408H61.9645V15.9942H65V18.2777C65 18.4365 64.9933 18.5542 64.9693 18.8397C64.8265 20.3785 63.4714 20.9388 61.9496 20.9388C60.4277 20.9388 59.0842 20.3785 58.9448 18.8397C58.9108 18.5542 58.9108 18.4373 58.9108 18.2777V14.7015C58.9108 14.5484 58.9282 14.2802 58.9506 14.1427C59.1373 12.5447 60.4327 12.0403 61.9496 12.0403C63.4665 12.0403 64.8099 12.539 64.9618 14.1427C64.9933 14.4052 64.9784 14.7015 64.9784 14.7015L64.9834 14.978H62.8217V14.5032C62.8217 14.5032 62.8217 14.2983 62.7918 14.1773C62.7553 13.9955 62.5885 13.5643 61.933 13.5643C61.3181 13.5643 61.1314 13.9724 61.0824 14.1773C61.0559 14.2909 61.0509 14.4431 61.0509 14.5822V18.4702C61.0509 18.578 61.0558 18.699 61.0658 18.7944C61.1081 19.0265 61.3239 19.4099 61.9471 19.4099" fill="#21418D"/>
</g>
<defs>
<clipPath id="clip0_551_1735">
<rect width="60" height="27" fill="white" transform="translate(5 12)"/>
</clipPath>
</defs>
</svg>
